<svg xmlns="http://www.w3.org/2000/svg" width="480" height="201" viewBox="0 0 480 201" role="img" aria-label="Contribution activity">
<style>
  .t{font-family:-apple-system,BlinkMacSystemFont,'Segoe UI',Roboto,Helvetica,Arial,sans-serif;}
  .title{font-size:13px;font-weight:600;fill:#7a7adb;}
  .hero{font-size:46px;font-weight:700;fill:#e6edf3;}
  .val{font-size:19px;font-weight:600;fill:#e6edf3;}
  .lab{font-size:11px;fill:#8b949e;letter-spacing:.02em;}
  .leg{font-size:11px;fill:#e6edf3;}
  .pct{font-size:11px;fill:#8b949e;}
</style>
<rect x="0.5" y="0.5" width="479" height="200" rx="12"
      fill="#0d1117" stroke="#30363d"/>
<g class="t">
  <rect x="20" y="20" width="3" height="13" rx="1.5" fill="#7a7adb"/>
  <text x="31" y="31" class="title">Contribution activity</text>
  <rect x="20.00" y="54.00" width="6.66" height="6.66" rx="1.5" fill="#161b22"/>
  <rect x="20.00" y="62.46" width="6.66" height="6.66" rx="1.5" fill="#2b2a63"/>
  <rect x="20.00" y="70.92" width="6.66" height="6.66" rx="1.5" fill="#2b2a63"/>
  <rect x="20.00" y="79.38" width="6.66" height="6.66" rx="1.5" fill="#453f9e"/>
  <rect x="20.00" y="87.85" width="6.66" height="6.66" rx="1.5" fill="#453f9e"/>
  <rect x="20.00" y="96.31" width="6.66" height="6.66" rx="1.5" fill="#2b2a63"/>
  <rect x="20.00" y="104.77" width="6.66" height="6.66" rx="1.5" fill="#161b22"/>
  <rect x="28.46" y="54.00" width="6.66" height="6.66" rx="1.5" fill="#161b22"/>
  <rect x="28.46" y="62.46" width="6.66" height="6.66" rx="1.5" fill="#161b22"/>
  <rect x="28.46" y="70.92" width="6.66" height="6.66" rx="1.5" fill="#161b22"/>
  <rect x="28.46" y="79.38" width="6.66" height="6.66" rx="1.5" fill="#161b22"/>
  <rect x="28.46" y="87.85" width="6.66" height="6.66" rx="1.5" fill="#161b22"/>
  <rect x="28.46" y="96.31" width="6.66" height="6.66" rx="1.5" fill="#161b22"/>
  <rect x="28.46" y="104.77" width="6.66" height="6.66" rx="1.5" fill="#161b22"/>
  <rect x="36.92" y="54.00" width="6.66" height="6.66" rx="1.5" fill="#2b2a63"/>
  <rect x="36.92" y="62.46" width="6.66" height="6.66" rx="1.5" fill="#2b2a63"/>
  <rect x="36.92" y="70.92" width="6.66" height="6.66" rx="1.5" fill="#2b2a63"/>
  <rect x="36.92" y="79.38" width="6.66" height="6.66" rx="1.5" fill="#2b2a63"/>
  <rect x="36.92" y="87.85" width="6.66" height="6.66" rx="1.5" fill="#453f9e"/>
  <rect x="36.92" y="96.31" width="6.66" height="6.66" rx="1.5" fill="#9d95f5"/>
  <rect x="36.92" y="104.77" width="6.66" height="6.66" rx="1.5" fill="#9d95f5"/>
  <rect x="45.38" y="54.00" width="6.66" height="6.66" rx="1.5" fill="#2b2a63"/>
  <rect x="45.38" y="62.46" width="6.66" height="6.66" rx="1.5" fill="#9d95f5"/>
  <rect x="45.38" y="70.92" width="6.66" height="6.66" rx="1.5" fill="#9d95f5"/>
  <rect x="45.38" y="79.38" width="6.66" height="6.66" rx="1.5" fill="#9d95f5"/>
  <rect x="45.38" y="87.85" width="6.66" height="6.66" rx="1.5" fill="#6a5fd0"/>
  <rect x="45.38" y="96.31" width="6.66" height="6.66" rx="1.5" fill="#453f9e"/>
  <rect x="45.38" y="104.77" width="6.66" height="6.66" rx="1.5" fill="#161b22"/>
  <rect x="53.85" y="54.00" width="6.66" height="6.66" rx="1.5" fill="#161b22"/>
  <rect x="53.85" y="62.46" width="6.66" height="6.66" rx="1.5" fill="#6a5fd0"/>
  <rect x="53.85" y="70.92" width="6.66" height="6.66" rx="1.5" fill="#2b2a63"/>
  <rect x="53.85" y="79.38" width="6.66" height="6.66" rx="1.5" fill="#453f9e"/>
  <rect x="53.85" y="87.85" width="6.66" height="6.66" rx="1.5" fill="#453f9e"/>
  <rect x="53.85" y="96.31" width="6.66" height="6.66" rx="1.5" fill="#453f9e"/>
  <rect x="53.85" y="104.77" width="6.66" height="6.66" rx="1.5" fill="#161b22"/>
  <rect x="62.31" y="54.00" width="6.66" height="6.66" rx="1.5" fill="#161b22"/>
  <rect x="62.31" y="62.46" width="6.66" height="6.66" rx="1.5" fill="#6a5fd0"/>
  <rect x="62.31" y="70.92" width="6.66" height="6.66" rx="1.5" fill="#161b22"/>
  <rect x="62.31" y="79.38" width="6.66" height="6.66" rx="1.5" fill="#2b2a63"/>
  <rect x="62.31" y="87.85" width="6.66" height="6.66" rx="1.5" fill="#2b2a63"/>
  <rect x="62.31" y="96.31" width="6.66" height="6.66" rx="1.5" fill="#9d95f5"/>
  <rect x="62.31" y="104.77" width="6.66" height="6.66" rx="1.5" fill="#2b2a63"/>
  <rect x="70.77" y="54.00" width="6.66" height="6.66" rx="1.5" fill="#161b22"/>
  <rect x="70.77" y="62.46" width="6.66" height="6.66" rx="1.5" fill="#2b2a63"/>
  <rect x="70.77" y="70.92" width="6.66" height="6.66" rx="1.5" fill="#2b2a63"/>
  <rect x="70.77" y="79.38" width="6.66" height="6.66" rx="1.5" fill="#9d95f5"/>
  <rect x="70.77" y="87.85" width="6.66" height="6.66" rx="1.5" fill="#453f9e"/>
  <rect x="70.77" y="96.31" width="6.66" height="6.66" rx="1.5" fill="#9d95f5"/>
  <rect x="70.77" y="104.77" width="6.66" height="6.66" rx="1.5" fill="#6a5fd0"/>
  <rect x="79.23" y="54.00" width="6.66" height="6.66" rx="1.5" fill="#6a5fd0"/>
  <rect x="79.23" y="62.46" width="6.66" height="6.66" rx="1.5" fill="#2b2a63"/>
  <rect x="79.23" y="70.92" width="6.66" height="6.66" rx="1.5" fill="#453f9e"/>
  <rect x="79.23" y="79.38" width="6.66" height="6.66" rx="1.5" fill="#453f9e"/>
  <rect x="79.23" y="87.85" width="6.66" height="6.66" rx="1.5" fill="#453f9e"/>
  <rect x="79.23" y="96.31" width="6.66" height="6.66" rx="1.5" fill="#161b22"/>
  <rect x="79.23" y="104.77" width="6.66" height="6.66" rx="1.5" fill="#161b22"/>
  <rect x="87.69" y="54.00" width="6.66" height="6.66" rx="1.5" fill="#161b22"/>
  <rect x="87.69" y="62.46" width="6.66" height="6.66" rx="1.5" fill="#2b2a63"/>
  <rect x="87.69" y="70.92" width="6.66" height="6.66" rx="1.5" fill="#2b2a63"/>
  <rect x="87.69" y="79.38" width="6.66" height="6.66" rx="1.5" fill="#453f9e"/>
  <rect x="87.69" y="87.85" width="6.66" height="6.66" rx="1.5" fill="#2b2a63"/>
  <rect x="87.69" y="96.31" width="6.66" height="6.66" rx="1.5" fill="#161b22"/>
  <rect x="87.69" y="104.77" width="6.66" height="6.66" rx="1.5" fill="#2b2a63"/>
  <rect x="96.15" y="54.00" width="6.66" height="6.66" rx="1.5" fill="#161b22"/>
  <rect x="96.15" y="62.46" width="6.66" height="6.66" rx="1.5" fill="#2b2a63"/>
  <rect x="96.15" y="70.92" width="6.66" height="6.66" rx="1.5" fill="#2b2a63"/>
  <rect x="96.15" y="79.38" width="6.66" height="6.66" rx="1.5" fill="#453f9e"/>
  <rect x="96.15" y="87.85" width="6.66" height="6.66" rx="1.5" fill="#6a5fd0"/>
  <rect x="96.15" y="96.31" width="6.66" height="6.66" rx="1.5" fill="#2b2a63"/>
  <rect x="96.15" y="104.77" width="6.66" height="6.66" rx="1.5" fill="#161b22"/>
  <rect x="104.62" y="54.00" width="6.66" height="6.66" rx="1.5" fill="#161b22"/>
  <rect x="104.62" y="62.46" width="6.66" height="6.66" rx="1.5" fill="#453f9e"/>
  <rect x="104.62" y="70.92" width="6.66" height="6.66" rx="1.5" fill="#453f9e"/>
  <rect x="104.62" y="79.38" width="6.66" height="6.66" rx="1.5" fill="#2b2a63"/>
  <rect x="104.62" y="87.85" width="6.66" height="6.66" rx="1.5" fill="#2b2a63"/>
  <rect x="104.62" y="96.31" width="6.66" height="6.66" rx="1.5" fill="#161b22"/>
  <rect x="104.62" y="104.77" width="6.66" height="6.66" rx="1.5" fill="#161b22"/>
  <rect x="113.08" y="54.00" width="6.66" height="6.66" rx="1.5" fill="#161b22"/>
  <rect x="113.08" y="62.46" width="6.66" height="6.66" rx="1.5" fill="#161b22"/>
  <rect x="113.08" y="70.92" width="6.66" height="6.66" rx="1.5" fill="#2b2a63"/>
  <rect x="113.08" y="79.38" width="6.66" height="6.66" rx="1.5" fill="#161b22"/>
  <rect x="113.08" y="87.85" width="6.66" height="6.66" rx="1.5" fill="#161b22"/>
  <rect x="113.08" y="96.31" width="6.66" height="6.66" rx="1.5" fill="#161b22"/>
  <rect x="113.08" y="104.77" width="6.66" height="6.66" rx="1.5" fill="#161b22"/>
  <rect x="121.54" y="54.00" width="6.66" height="6.66" rx="1.5" fill="#2b2a63"/>
  <rect x="121.54" y="62.46" width="6.66" height="6.66" rx="1.5" fill="#453f9e"/>
  <rect x="121.54" y="70.92" width="6.66" height="6.66" rx="1.5" fill="#2b2a63"/>
  <rect x="121.54" y="79.38" width="6.66" height="6.66" rx="1.5" fill="#453f9e"/>
  <rect x="121.54" y="87.85" width="6.66" height="6.66" rx="1.5" fill="#161b22"/>
  <rect x="121.54" y="96.31" width="6.66" height="6.66" rx="1.5" fill="#2b2a63"/>
  <rect x="121.54" y="104.77" width="6.66" height="6.66" rx="1.5" fill="#161b22"/>
  <rect x="130.00" y="54.00" width="6.66" height="6.66" rx="1.5" fill="#161b22"/>
  <rect x="130.00" y="62.46" width="6.66" height="6.66" rx="1.5" fill="#453f9e"/>
  <rect x="130.00" y="70.92" width="6.66" height="6.66" rx="1.5" fill="#9d95f5"/>
  <rect x="130.00" y="79.38" width="6.66" height="6.66" rx="1.5" fill="#2b2a63"/>
  <rect x="130.00" y="87.85" width="6.66" height="6.66" rx="1.5" fill="#161b22"/>
  <rect x="130.00" y="96.31" width="6.66" height="6.66" rx="1.5" fill="#2b2a63"/>
  <rect x="130.00" y="104.77" width="6.66" height="6.66" rx="1.5" fill="#161b22"/>
  <rect x="138.46" y="54.00" width="6.66" height="6.66" rx="1.5" fill="#161b22"/>
  <rect x="138.46" y="62.46" width="6.66" height="6.66" rx="1.5" fill="#453f9e"/>
  <rect x="138.46" y="70.92" width="6.66" height="6.66" rx="1.5" fill="#453f9e"/>
  <rect x="138.46" y="79.38" width="6.66" height="6.66" rx="1.5" fill="#453f9e"/>
  <rect x="138.46" y="87.85" width="6.66" height="6.66" rx="1.5" fill="#161b22"/>
  <rect x="138.46" y="96.31" width="6.66" height="6.66" rx="1.5" fill="#161b22"/>
  <rect x="138.46" y="104.77" width="6.66" height="6.66" rx="1.5" fill="#2b2a63"/>
  <rect x="146.92" y="54.00" width="6.66" height="6.66" rx="1.5" fill="#161b22"/>
  <rect x="146.92" y="62.46" width="6.66" height="6.66" rx="1.5" fill="#2b2a63"/>
  <rect x="146.92" y="70.92" width="6.66" height="6.66" rx="1.5" fill="#2b2a63"/>
  <rect x="146.92" y="79.38" width="6.66" height="6.66" rx="1.5" fill="#161b22"/>
  <rect x="146.92" y="87.85" width="6.66" height="6.66" rx="1.5" fill="#161b22"/>
  <rect x="146.92" y="96.31" width="6.66" height="6.66" rx="1.5" fill="#161b22"/>
  <rect x="146.92" y="104.77" width="6.66" height="6.66" rx="1.5" fill="#161b22"/>
  <rect x="155.38" y="54.00" width="6.66" height="6.66" rx="1.5" fill="#161b22"/>
  <rect x="155.38" y="62.46" width="6.66" height="6.66" rx="1.5" fill="#2b2a63"/>
  <rect x="155.38" y="70.92" width="6.66" height="6.66" rx="1.5" fill="#6a5fd0"/>
  <rect x="155.38" y="79.38" width="6.66" height="6.66" rx="1.5" fill="#453f9e"/>
  <rect x="155.38" y="87.85" width="6.66" height="6.66" rx="1.5" fill="#2b2a63"/>
  <rect x="155.38" y="96.31" width="6.66" height="6.66" rx="1.5" fill="#9d95f5"/>
  <rect x="155.38" y="104.77" width="6.66" height="6.66" rx="1.5" fill="#6a5fd0"/>
  <rect x="163.85" y="54.00" width="6.66" height="6.66" rx="1.5" fill="#161b22"/>
  <rect x="163.85" y="62.46" width="6.66" height="6.66" rx="1.5" fill="#2b2a63"/>
  <rect x="163.85" y="70.92" width="6.66" height="6.66" rx="1.5" fill="#453f9e"/>
  <rect x="163.85" y="79.38" width="6.66" height="6.66" rx="1.5" fill="#453f9e"/>
  <rect x="163.85" y="87.85" width="6.66" height="6.66" rx="1.5" fill="#2b2a63"/>
  <rect x="163.85" y="96.31" width="6.66" height="6.66" rx="1.5" fill="#453f9e"/>
  <rect x="163.85" y="104.77" width="6.66" height="6.66" rx="1.5" fill="#161b22"/>
  <rect x="172.31" y="54.00" width="6.66" height="6.66" rx="1.5" fill="#161b22"/>
  <rect x="172.31" y="62.46" width="6.66" height="6.66" rx="1.5" fill="#2b2a63"/>
  <rect x="172.31" y="70.92" width="6.66" height="6.66" rx="1.5" fill="#453f9e"/>
  <rect x="172.31" y="79.38" width="6.66" height="6.66" rx="1.5" fill="#453f9e"/>
  <rect x="172.31" y="87.85" width="6.66" height="6.66" rx="1.5" fill="#453f9e"/>
  <rect x="172.31" y="96.31" width="6.66" height="6.66" rx="1.5" fill="#6a5fd0"/>
  <rect x="172.31" y="104.77" width="6.66" height="6.66" rx="1.5" fill="#453f9e"/>
  <rect x="180.77" y="54.00" width="6.66" height="6.66" rx="1.5" fill="#161b22"/>
  <rect x="180.77" y="62.46" width="6.66" height="6.66" rx="1.5" fill="#6a5fd0"/>
  <rect x="180.77" y="70.92" width="6.66" height="6.66" rx="1.5" fill="#2b2a63"/>
  <rect x="180.77" y="79.38" width="6.66" height="6.66" rx="1.5" fill="#9d95f5"/>
  <rect x="180.77" y="87.85" width="6.66" height="6.66" rx="1.5" fill="#6a5fd0"/>
  <rect x="180.77" y="96.31" width="6.66" height="6.66" rx="1.5" fill="#9d95f5"/>
  <rect x="180.77" y="104.77" width="6.66" height="6.66" rx="1.5" fill="#6a5fd0"/>
  <rect x="189.23" y="54.00" width="6.66" height="6.66" rx="1.5" fill="#453f9e"/>
  <rect x="189.23" y="62.46" width="6.66" height="6.66" rx="1.5" fill="#453f9e"/>
  <rect x="189.23" y="70.92" width="6.66" height="6.66" rx="1.5" fill="#2b2a63"/>
  <rect x="189.23" y="79.38" width="6.66" height="6.66" rx="1.5" fill="#6a5fd0"/>
  <rect x="189.23" y="87.85" width="6.66" height="6.66" rx="1.5" fill="#453f9e"/>
  <rect x="189.23" y="96.31" width="6.66" height="6.66" rx="1.5" fill="#453f9e"/>
  <rect x="189.23" y="104.77" width="6.66" height="6.66" rx="1.5" fill="#6a5fd0"/>
  <rect x="197.69" y="54.00" width="6.66" height="6.66" rx="1.5" fill="#2b2a63"/>
  <rect x="197.69" y="62.46" width="6.66" height="6.66" rx="1.5" fill="#6a5fd0"/>
  <rect x="197.69" y="70.92" width="6.66" height="6.66" rx="1.5" fill="#6a5fd0"/>
  <rect x="197.69" y="79.38" width="6.66" height="6.66" rx="1.5" fill="#2b2a63"/>
  <rect x="197.69" y="87.85" width="6.66" height="6.66" rx="1.5" fill="#161b22"/>
  <rect x="197.69" y="96.31" width="6.66" height="6.66" rx="1.5" fill="#2b2a63"/>
  <rect x="197.69" y="104.77" width="6.66" height="6.66" rx="1.5" fill="#161b22"/>
  <rect x="206.15" y="54.00" width="6.66" height="6.66" rx="1.5" fill="#161b22"/>
  <rect x="206.15" y="62.46" width="6.66" height="6.66" rx="1.5" fill="#9d95f5"/>
  <rect x="206.15" y="70.92" width="6.66" height="6.66" rx="1.5" fill="#453f9e"/>
  <rect x="206.15" y="79.38" width="6.66" height="6.66" rx="1.5" fill="#6a5fd0"/>
  <rect x="206.15" y="87.85" width="6.66" height="6.66" rx="1.5" fill="#9d95f5"/>
  <rect x="206.15" y="96.31" width="6.66" height="6.66" rx="1.5" fill="#6a5fd0"/>
  <rect x="206.15" y="104.77" width="6.66" height="6.66" rx="1.5" fill="#2b2a63"/>
  <rect x="214.62" y="54.00" width="6.66" height="6.66" rx="1.5" fill="#6a5fd0"/>
  <rect x="214.62" y="62.46" width="6.66" height="6.66" rx="1.5" fill="#453f9e"/>
  <rect x="214.62" y="70.92" width="6.66" height="6.66" rx="1.5" fill="#6a5fd0"/>
  <rect x="214.62" y="79.38" width="6.66" height="6.66" rx="1.5" fill="#6a5fd0"/>
  <rect x="214.62" y="87.85" width="6.66" height="6.66" rx="1.5" fill="#9d95f5"/>
  <rect x="214.62" y="96.31" width="6.66" height="6.66" rx="1.5" fill="#9d95f5"/>
  <rect x="214.62" y="104.77" width="6.66" height="6.66" rx="1.5" fill="#453f9e"/>
  <rect x="223.08" y="54.00" width="6.66" height="6.66" rx="1.5" fill="#2b2a63"/>
  <rect x="223.08" y="62.46" width="6.66" height="6.66" rx="1.5" fill="#6a5fd0"/>
  <rect x="223.08" y="70.92" width="6.66" height="6.66" rx="1.5" fill="#6a5fd0"/>
  <rect x="223.08" y="79.38" width="6.66" height="6.66" rx="1.5" fill="#6a5fd0"/>
  <rect x="223.08" y="87.85" width="6.66" height="6.66" rx="1.5" fill="#9d95f5"/>
  <rect x="223.08" y="96.31" width="6.66" height="6.66" rx="1.5" fill="#6a5fd0"/>
  <rect x="223.08" y="104.77" width="6.66" height="6.66" rx="1.5" fill="#6a5fd0"/>
  <rect x="231.54" y="54.00" width="6.66" height="6.66" rx="1.5" fill="#2b2a63"/>
  <rect x="231.54" y="62.46" width="6.66" height="6.66" rx="1.5" fill="#9d95f5"/>
  <rect x="231.54" y="70.92" width="6.66" height="6.66" rx="1.5" fill="#6a5fd0"/>
  <rect x="231.54" y="79.38" width="6.66" height="6.66" rx="1.5" fill="#9d95f5"/>
  <rect x="231.54" y="87.85" width="6.66" height="6.66" rx="1.5" fill="#453f9e"/>
  <rect x="231.54" y="96.31" width="6.66" height="6.66" rx="1.5" fill="#6a5fd0"/>
  <rect x="231.54" y="104.77" width="6.66" height="6.66" rx="1.5" fill="#6a5fd0"/>
  <rect x="240.00" y="54.00" width="6.66" height="6.66" rx="1.5" fill="#6a5fd0"/>
  <rect x="240.00" y="62.46" width="6.66" height="6.66" rx="1.5" fill="#453f9e"/>
  <rect x="240.00" y="70.92" width="6.66" height="6.66" rx="1.5" fill="#9d95f5"/>
  <rect x="240.00" y="79.38" width="6.66" height="6.66" rx="1.5" fill="#6a5fd0"/>
  <rect x="240.00" y="87.85" width="6.66" height="6.66" rx="1.5" fill="#6a5fd0"/>
  <rect x="240.00" y="96.31" width="6.66" height="6.66" rx="1.5" fill="#6a5fd0"/>
  <rect x="240.00" y="104.77" width="6.66" height="6.66" rx="1.5" fill="#6a5fd0"/>
  <rect x="248.46" y="54.00" width="6.66" height="6.66" rx="1.5" fill="#453f9e"/>
  <rect x="248.46" y="62.46" width="6.66" height="6.66" rx="1.5" fill="#6a5fd0"/>
  <rect x="248.46" y="70.92" width="6.66" height="6.66" rx="1.5" fill="#9d95f5"/>
  <rect x="248.46" y="79.38" width="6.66" height="6.66" rx="1.5" fill="#453f9e"/>
  <rect x="248.46" y="87.85" width="6.66" height="6.66" rx="1.5" fill="#453f9e"/>
  <rect x="248.46" y="96.31" width="6.66" height="6.66" rx="1.5" fill="#2b2a63"/>
  <rect x="248.46" y="104.77" width="6.66" height="6.66" rx="1.5" fill="#161b22"/>
  <rect x="256.92" y="54.00" width="6.66" height="6.66" rx="1.5" fill="#2b2a63"/>
  <rect x="256.92" y="62.46" width="6.66" height="6.66" rx="1.5" fill="#453f9e"/>
  <rect x="256.92" y="70.92" width="6.66" height="6.66" rx="1.5" fill="#6a5fd0"/>
  <rect x="256.92" y="79.38" width="6.66" height="6.66" rx="1.5" fill="#2b2a63"/>
  <rect x="256.92" y="87.85" width="6.66" height="6.66" rx="1.5" fill="#2b2a63"/>
  <rect x="256.92" y="96.31" width="6.66" height="6.66" rx="1.5" fill="#6a5fd0"/>
  <rect x="256.92" y="104.77" width="6.66" height="6.66" rx="1.5" fill="#9d95f5"/>
  <rect x="265.38" y="54.00" width="6.66" height="6.66" rx="1.5" fill="#2b2a63"/>
  <rect x="265.38" y="62.46" width="6.66" height="6.66" rx="1.5" fill="#9d95f5"/>
  <rect x="265.38" y="70.92" width="6.66" height="6.66" rx="1.5" fill="#453f9e"/>
  <rect x="265.38" y="79.38" width="6.66" height="6.66" rx="1.5" fill="#6a5fd0"/>
  <rect x="265.38" y="87.85" width="6.66" height="6.66" rx="1.5" fill="#453f9e"/>
  <rect x="265.38" y="96.31" width="6.66" height="6.66" rx="1.5" fill="#453f9e"/>
  <rect x="265.38" y="104.77" width="6.66" height="6.66" rx="1.5" fill="#453f9e"/>
  <rect x="273.85" y="54.00" width="6.66" height="6.66" rx="1.5" fill="#161b22"/>
  <rect x="273.85" y="62.46" width="6.66" height="6.66" rx="1.5" fill="#6a5fd0"/>
  <rect x="273.85" y="70.92" width="6.66" height="6.66" rx="1.5" fill="#2b2a63"/>
  <rect x="273.85" y="79.38" width="6.66" height="6.66" rx="1.5" fill="#453f9e"/>
  <rect x="273.85" y="87.85" width="6.66" height="6.66" rx="1.5" fill="#453f9e"/>
  <rect x="273.85" y="96.31" width="6.66" height="6.66" rx="1.5" fill="#6a5fd0"/>
  <rect x="273.85" y="104.77" width="6.66" height="6.66" rx="1.5" fill="#453f9e"/>
  <rect x="282.31" y="54.00" width="6.66" height="6.66" rx="1.5" fill="#161b22"/>
  <rect x="282.31" y="62.46" width="6.66" height="6.66" rx="1.5" fill="#9d95f5"/>
  <rect x="282.31" y="70.92" width="6.66" height="6.66" rx="1.5" fill="#453f9e"/>
  <rect x="282.31" y="79.38" width="6.66" height="6.66" rx="1.5" fill="#6a5fd0"/>
  <rect x="282.31" y="87.85" width="6.66" height="6.66" rx="1.5" fill="#6a5fd0"/>
  <rect x="282.31" y="96.31" width="6.66" height="6.66" rx="1.5" fill="#6a5fd0"/>
  <rect x="282.31" y="104.77" width="6.66" height="6.66" rx="1.5" fill="#161b22"/>
  <rect x="290.77" y="54.00" width="6.66" height="6.66" rx="1.5" fill="#161b22"/>
  <rect x="290.77" y="62.46" width="6.66" height="6.66" rx="1.5" fill="#6a5fd0"/>
  <rect x="290.77" y="70.92" width="6.66" height="6.66" rx="1.5" fill="#453f9e"/>
  <rect x="290.77" y="79.38" width="6.66" height="6.66" rx="1.5" fill="#6a5fd0"/>
  <rect x="290.77" y="87.85" width="6.66" height="6.66" rx="1.5" fill="#453f9e"/>
  <rect x="290.77" y="96.31" width="6.66" height="6.66" rx="1.5" fill="#453f9e"/>
  <rect x="290.77" y="104.77" width="6.66" height="6.66" rx="1.5" fill="#2b2a63"/>
  <rect x="299.23" y="54.00" width="6.66" height="6.66" rx="1.5" fill="#161b22"/>
  <rect x="299.23" y="62.46" width="6.66" height="6.66" rx="1.5" fill="#9d95f5"/>
  <rect x="299.23" y="70.92" width="6.66" height="6.66" rx="1.5" fill="#9d95f5"/>
  <rect x="299.23" y="79.38" width="6.66" height="6.66" rx="1.5" fill="#2b2a63"/>
  <rect x="299.23" y="87.85" width="6.66" height="6.66" rx="1.5" fill="#9d95f5"/>
  <rect x="299.23" y="96.31" width="6.66" height="6.66" rx="1.5" fill="#6a5fd0"/>
  <rect x="299.23" y="104.77" width="6.66" height="6.66" rx="1.5" fill="#161b22"/>
  <rect x="307.69" y="54.00" width="6.66" height="6.66" rx="1.5" fill="#161b22"/>
  <rect x="307.69" y="62.46" width="6.66" height="6.66" rx="1.5" fill="#9d95f5"/>
  <rect x="307.69" y="70.92" width="6.66" height="6.66" rx="1.5" fill="#453f9e"/>
  <rect x="307.69" y="79.38" width="6.66" height="6.66" rx="1.5" fill="#6a5fd0"/>
  <rect x="307.69" y="87.85" width="6.66" height="6.66" rx="1.5" fill="#6a5fd0"/>
  <rect x="307.69" y="96.31" width="6.66" height="6.66" rx="1.5" fill="#6a5fd0"/>
  <rect x="307.69" y="104.77" width="6.66" height="6.66" rx="1.5" fill="#2b2a63"/>
  <rect x="316.15" y="54.00" width="6.66" height="6.66" rx="1.5" fill="#161b22"/>
  <rect x="316.15" y="62.46" width="6.66" height="6.66" rx="1.5" fill="#9d95f5"/>
  <rect x="316.15" y="70.92" width="6.66" height="6.66" rx="1.5" fill="#9d95f5"/>
  <rect x="316.15" y="79.38" width="6.66" height="6.66" rx="1.5" fill="#453f9e"/>
  <rect x="316.15" y="87.85" width="6.66" height="6.66" rx="1.5" fill="#9d95f5"/>
  <rect x="316.15" y="96.31" width="6.66" height="6.66" rx="1.5" fill="#6a5fd0"/>
  <rect x="316.15" y="104.77" width="6.66" height="6.66" rx="1.5" fill="#2b2a63"/>
  <rect x="324.62" y="54.00" width="6.66" height="6.66" rx="1.5" fill="#9d95f5"/>
  <rect x="324.62" y="62.46" width="6.66" height="6.66" rx="1.5" fill="#9d95f5"/>
  <rect x="324.62" y="70.92" width="6.66" height="6.66" rx="1.5" fill="#453f9e"/>
  <rect x="324.62" y="79.38" width="6.66" height="6.66" rx="1.5" fill="#9d95f5"/>
  <rect x="324.62" y="87.85" width="6.66" height="6.66" rx="1.5" fill="#6a5fd0"/>
  <rect x="324.62" y="96.31" width="6.66" height="6.66" rx="1.5" fill="#6a5fd0"/>
  <rect x="324.62" y="104.77" width="6.66" height="6.66" rx="1.5" fill="#2b2a63"/>
  <rect x="333.08" y="54.00" width="6.66" height="6.66" rx="1.5" fill="#161b22"/>
  <rect x="333.08" y="62.46" width="6.66" height="6.66" rx="1.5" fill="#6a5fd0"/>
  <rect x="333.08" y="70.92" width="6.66" height="6.66" rx="1.5" fill="#9d95f5"/>
  <rect x="333.08" y="79.38" width="6.66" height="6.66" rx="1.5" fill="#9d95f5"/>
  <rect x="333.08" y="87.85" width="6.66" height="6.66" rx="1.5" fill="#453f9e"/>
  <rect x="333.08" y="96.31" width="6.66" height="6.66" rx="1.5" fill="#6a5fd0"/>
  <rect x="333.08" y="104.77" width="6.66" height="6.66" rx="1.5" fill="#2b2a63"/>
  <rect x="341.54" y="54.00" width="6.66" height="6.66" rx="1.5" fill="#453f9e"/>
  <rect x="341.54" y="62.46" width="6.66" height="6.66" rx="1.5" fill="#6a5fd0"/>
  <rect x="341.54" y="70.92" width="6.66" height="6.66" rx="1.5" fill="#453f9e"/>
  <rect x="341.54" y="79.38" width="6.66" height="6.66" rx="1.5" fill="#6a5fd0"/>
  <rect x="341.54" y="87.85" width="6.66" height="6.66" rx="1.5" fill="#6a5fd0"/>
  <rect x="341.54" y="96.31" width="6.66" height="6.66" rx="1.5" fill="#9d95f5"/>
  <rect x="341.54" y="104.77" width="6.66" height="6.66" rx="1.5" fill="#9d95f5"/>
  <rect x="350.00" y="54.00" width="6.66" height="6.66" rx="1.5" fill="#2b2a63"/>
  <rect x="350.00" y="62.46" width="6.66" height="6.66" rx="1.5" fill="#2b2a63"/>
  <rect x="350.00" y="70.92" width="6.66" height="6.66" rx="1.5" fill="#6a5fd0"/>
  <rect x="350.00" y="79.38" width="6.66" height="6.66" rx="1.5" fill="#9d95f5"/>
  <rect x="350.00" y="87.85" width="6.66" height="6.66" rx="1.5" fill="#2b2a63"/>
  <rect x="350.00" y="96.31" width="6.66" height="6.66" rx="1.5" fill="#161b22"/>
  <rect x="350.00" y="104.77" width="6.66" height="6.66" rx="1.5" fill="#2b2a63"/>
  <rect x="358.46" y="54.00" width="6.66" height="6.66" rx="1.5" fill="#2b2a63"/>
  <rect x="358.46" y="62.46" width="6.66" height="6.66" rx="1.5" fill="#2b2a63"/>
  <rect x="358.46" y="70.92" width="6.66" height="6.66" rx="1.5" fill="#161b22"/>
  <rect x="358.46" y="79.38" width="6.66" height="6.66" rx="1.5" fill="#2b2a63"/>
  <rect x="358.46" y="87.85" width="6.66" height="6.66" rx="1.5" fill="#161b22"/>
  <rect x="358.46" y="96.31" width="6.66" height="6.66" rx="1.5" fill="#161b22"/>
  <rect x="358.46" y="104.77" width="6.66" height="6.66" rx="1.5" fill="#161b22"/>
  <rect x="366.92" y="54.00" width="6.66" height="6.66" rx="1.5" fill="#6a5fd0"/>
  <rect x="366.92" y="62.46" width="6.66" height="6.66" rx="1.5" fill="#9d95f5"/>
  <rect x="366.92" y="70.92" width="6.66" height="6.66" rx="1.5" fill="#6a5fd0"/>
  <rect x="366.92" y="79.38" width="6.66" height="6.66" rx="1.5" fill="#9d95f5"/>
  <rect x="366.92" y="87.85" width="6.66" height="6.66" rx="1.5" fill="#6a5fd0"/>
  <rect x="366.92" y="96.31" width="6.66" height="6.66" rx="1.5" fill="#9d95f5"/>
  <rect x="366.92" y="104.77" width="6.66" height="6.66" rx="1.5" fill="#453f9e"/>
  <rect x="375.38" y="54.00" width="6.66" height="6.66" rx="1.5" fill="#2b2a63"/>
  <rect x="375.38" y="62.46" width="6.66" height="6.66" rx="1.5" fill="#6a5fd0"/>
  <rect x="375.38" y="70.92" width="6.66" height="6.66" rx="1.5" fill="#6a5fd0"/>
  <rect x="375.38" y="79.38" width="6.66" height="6.66" rx="1.5" fill="#9d95f5"/>
  <rect x="375.38" y="87.85" width="6.66" height="6.66" rx="1.5" fill="#6a5fd0"/>
  <rect x="375.38" y="96.31" width="6.66" height="6.66" rx="1.5" fill="#453f9e"/>
  <rect x="375.38" y="104.77" width="6.66" height="6.66" rx="1.5" fill="#2b2a63"/>
  <rect x="383.85" y="54.00" width="6.66" height="6.66" rx="1.5" fill="#453f9e"/>
  <rect x="383.85" y="62.46" width="6.66" height="6.66" rx="1.5" fill="#9d95f5"/>
  <rect x="383.85" y="70.92" width="6.66" height="6.66" rx="1.5" fill="#9d95f5"/>
  <rect x="383.85" y="79.38" width="6.66" height="6.66" rx="1.5" fill="#453f9e"/>
  <rect x="383.85" y="87.85" width="6.66" height="6.66" rx="1.5" fill="#2b2a63"/>
  <rect x="383.85" y="96.31" width="6.66" height="6.66" rx="1.5" fill="#2b2a63"/>
  <rect x="383.85" y="104.77" width="6.66" height="6.66" rx="1.5" fill="#453f9e"/>
  <rect x="392.31" y="54.00" width="6.66" height="6.66" rx="1.5" fill="#2b2a63"/>
  <rect x="392.31" y="62.46" width="6.66" height="6.66" rx="1.5" fill="#2b2a63"/>
  <rect x="392.31" y="70.92" width="6.66" height="6.66" rx="1.5" fill="#453f9e"/>
  <rect x="392.31" y="79.38" width="6.66" height="6.66" rx="1.5" fill="#2b2a63"/>
  <rect x="392.31" y="87.85" width="6.66" height="6.66" rx="1.5" fill="#2b2a63"/>
  <rect x="392.31" y="96.31" width="6.66" height="6.66" rx="1.5" fill="#453f9e"/>
  <rect x="392.31" y="104.77" width="6.66" height="6.66" rx="1.5" fill="#6a5fd0"/>
  <rect x="400.77" y="54.00" width="6.66" height="6.66" rx="1.5" fill="#6a5fd0"/>
  <rect x="400.77" y="62.46" width="6.66" height="6.66" rx="1.5" fill="#9d95f5"/>
  <rect x="400.77" y="70.92" width="6.66" height="6.66" rx="1.5" fill="#2b2a63"/>
  <rect x="400.77" y="79.38" width="6.66" height="6.66" rx="1.5" fill="#453f9e"/>
  <rect x="400.77" y="87.85" width="6.66" height="6.66" rx="1.5" fill="#453f9e"/>
  <rect x="400.77" y="96.31" width="6.66" height="6.66" rx="1.5" fill="#453f9e"/>
  <rect x="400.77" y="104.77" width="6.66" height="6.66" rx="1.5" fill="#161b22"/>
  <rect x="409.23" y="54.00" width="6.66" height="6.66" rx="1.5" fill="#453f9e"/>
  <rect x="409.23" y="62.46" width="6.66" height="6.66" rx="1.5" fill="#453f9e"/>
  <rect x="409.23" y="70.92" width="6.66" height="6.66" rx="1.5" fill="#9d95f5"/>
  <rect x="409.23" y="79.38" width="6.66" height="6.66" rx="1.5" fill="#6a5fd0"/>
  <rect x="409.23" y="87.85" width="6.66" height="6.66" rx="1.5" fill="#6a5fd0"/>
  <rect x="409.23" y="96.31" width="6.66" height="6.66" rx="1.5" fill="#6a5fd0"/>
  <rect x="409.23" y="104.77" width="6.66" height="6.66" rx="1.5" fill="#2b2a63"/>
  <rect x="417.69" y="54.00" width="6.66" height="6.66" rx="1.5" fill="#9d95f5"/>
  <rect x="417.69" y="62.46" width="6.66" height="6.66" rx="1.5" fill="#9d95f5"/>
  <rect x="417.69" y="70.92" width="6.66" height="6.66" rx="1.5" fill="#9d95f5"/>
  <rect x="417.69" y="79.38" width="6.66" height="6.66" rx="1.5" fill="#6a5fd0"/>
  <rect x="417.69" y="87.85" width="6.66" height="6.66" rx="1.5" fill="#9d95f5"/>
  <rect x="417.69" y="96.31" width="6.66" height="6.66" rx="1.5" fill="#6a5fd0"/>
  <rect x="417.69" y="104.77" width="6.66" height="6.66" rx="1.5" fill="#2b2a63"/>
  <rect x="426.15" y="54.00" width="6.66" height="6.66" rx="1.5" fill="#453f9e"/>
  <rect x="426.15" y="62.46" width="6.66" height="6.66" rx="1.5" fill="#6a5fd0"/>
  <rect x="426.15" y="70.92" width="6.66" height="6.66" rx="1.5" fill="#6a5fd0"/>
  <rect x="426.15" y="79.38" width="6.66" height="6.66" rx="1.5" fill="#9d95f5"/>
  <rect x="426.15" y="87.85" width="6.66" height="6.66" rx="1.5" fill="#9d95f5"/>
  <rect x="426.15" y="96.31" width="6.66" height="6.66" rx="1.5" fill="#9d95f5"/>
  <rect x="426.15" y="104.77" width="6.66" height="6.66" rx="1.5" fill="#9d95f5"/>
  <rect x="434.62" y="54.00" width="6.66" height="6.66" rx="1.5" fill="#9d95f5"/>
  <rect x="434.62" y="62.46" width="6.66" height="6.66" rx="1.5" fill="#9d95f5"/>
  <rect x="434.62" y="70.92" width="6.66" height="6.66" rx="1.5" fill="#9d95f5"/>
  <rect x="434.62" y="79.38" width="6.66" height="6.66" rx="1.5" fill="#9d95f5"/>
  <rect x="434.62" y="87.85" width="6.66" height="6.66" rx="1.5" fill="#9d95f5"/>
  <rect x="434.62" y="96.31" width="6.66" height="6.66" rx="1.5" fill="#9d95f5"/>
  <rect x="434.62" y="104.77" width="6.66" height="6.66" rx="1.5" fill="#9d95f5"/>
  <rect x="443.08" y="54.00" width="6.66" height="6.66" rx="1.5" fill="#9d95f5"/>
  <rect x="443.08" y="62.46" width="6.66" height="6.66" rx="1.5" fill="#9d95f5"/>
  <rect x="443.08" y="70.92" width="6.66" height="6.66" rx="1.5" fill="#9d95f5"/>
  <rect x="443.08" y="79.38" width="6.66" height="6.66" rx="1.5" fill="#9d95f5"/>
  <rect x="443.08" y="87.85" width="6.66" height="6.66" rx="1.5" fill="#9d95f5"/>
  <rect x="443.08" y="96.31" width="6.66" height="6.66" rx="1.5" fill="#9d95f5"/>
  <rect x="443.08" y="104.77" width="6.66" height="6.66" rx="1.5" fill="#9d95f5"/>
  <rect x="451.54" y="54.00" width="6.66" height="6.66" rx="1.5" fill="#9d95f5"/>
  <rect x="451.54" y="62.46" width="6.66" height="6.66" rx="1.5" fill="#9d95f5"/>
  <rect x="451.54" y="70.92" width="6.66" height="6.66" rx="1.5" fill="#9d95f5"/>
  <rect x="451.54" y="79.38" width="6.66" height="6.66" rx="1.5" fill="#9d95f5"/>
  <text x="20" y="131" class="lab">Past 12 months &#183; peak 188 in a day</text>
  <text x="20" y="167" class="val">39</text><text x="20" y="183" class="lab">Current streak</text>
  <text x="173" y="167" class="val">96</text><text x="173" y="183" class="lab">Longest streak</text>
  <text x="326" y="167" class="val">1,067</text><text x="326" y="183" class="lab">Best day, all time</text>
</g>
</svg>
